<svg width="38" height="38" viewBox="0 0 38 38" fill="none" xmlns="http://www.w3.org/2000/svg">
<g filter="url(#filter0_d_75_8422)">
<mask id="mask0_75_8422" style="mask-type:luminance" maskUnits="userSpaceOnUse" x="5" y="1" width="28" height="28">
<path fill-rule="evenodd" clip-rule="evenodd" d="M5.25 1.25049H32.1162V28.1177H5.25V1.25049Z" fill="white"/>
</mask>
<g mask="url(#mask0_75_8422)">
<path fill-rule="evenodd" clip-rule="evenodd" d="M11.6355 24.5942C12.3605 24.5942 13.0443 24.8692 13.768 25.1605C18.2018 27.2105 23.4455 26.278 26.8618 22.863C31.3693 18.353 31.3693 11.0167 26.8618 6.50924C24.6793 4.32674 21.7768 3.12549 18.6868 3.12549C15.5955 3.12549 12.6918 4.32799 10.5105 6.51049C7.09305 9.92549 6.16305 15.1692 8.1943 19.5605C8.4868 20.2842 8.7693 20.9892 8.7693 21.7217C8.7693 22.453 8.51805 23.1892 8.2968 23.8392C8.1143 24.3742 7.83805 25.1817 8.01555 25.3592C8.1893 25.5392 9.0018 25.2555 9.53805 25.0717C10.1818 24.8517 10.9118 24.5992 11.6355 24.5942ZM18.6555 28.118C16.7455 28.118 14.823 27.7142 13.0243 26.8817C12.4943 26.6692 11.998 26.4692 11.6418 26.4692C11.2318 26.4717 10.6805 26.6617 10.148 26.8455C9.05555 27.2205 7.69555 27.688 6.6893 26.6855C5.6868 25.6817 6.1493 24.3255 6.5218 23.2342C6.70555 22.6967 6.8943 22.1417 6.8943 21.7217C6.8943 21.3767 6.72805 20.9367 6.47305 20.303C4.1318 15.2467 5.2143 9.15299 9.18555 5.18424C11.7205 2.64799 15.0943 1.25049 18.6855 1.25049C22.2768 1.25049 25.6518 2.64674 28.1868 5.18299C33.4268 10.423 33.4268 18.948 28.1868 24.188C25.618 26.758 22.1593 28.118 18.6555 28.118Z" fill="#49286D"/>
</g>
<path fill-rule="evenodd" clip-rule="evenodd" d="M23.6205 16.4541C22.9305 16.4541 22.3655 15.8954 22.3655 15.2041C22.3655 14.5129 22.9192 13.9541 23.6092 13.9541H23.6205C24.3105 13.9541 24.8705 14.5129 24.8705 15.2041C24.8705 15.8954 24.3105 16.4541 23.6205 16.4541Z" fill="#49286D"/>
<path fill-rule="evenodd" clip-rule="evenodd" d="M18.6095 16.4541C17.9195 16.4541 17.3545 15.8954 17.3545 15.2041C17.3545 14.5129 17.907 13.9541 18.5982 13.9541H18.6095C19.2995 13.9541 19.8595 14.5129 19.8595 15.2041C19.8595 15.8954 19.2995 16.4541 18.6095 16.4541Z" fill="#49286D"/>
<path fill-rule="evenodd" clip-rule="evenodd" d="M13.5978 16.4541C12.9078 16.4541 12.3428 15.8954 12.3428 15.2041C12.3428 14.5129 12.8965 13.9541 13.5865 13.9541H13.5978C14.2878 13.9541 14.8478 14.5129 14.8478 15.2041C14.8478 15.8954 14.2878 16.4541 13.5978 16.4541Z" fill="#49286D"/>
</g>
<defs>
<filter id="filter0_d_75_8422" x="0" y="0" width="38" height="38" filterUnits="userSpaceOnUse" color-interpolation-filters="sRGB">
<feFlood flood-opacity="0" result="BackgroundImageFix"/>
<feColorMatrix in="SourceAlpha" type="matrix" values="0 0 0 0 0 0 0 0 0 0 0 0 0 0 0 0 0 0 127 0" result="hardAlpha"/>
<feOffset dy="4"/>
<feGaussianBlur stdDeviation="2"/>
<feComposite in2="hardAlpha" operator="out"/>
<feColorMatrix type="matrix" values="0 0 0 0 0 0 0 0 0 0 0 0 0 0 0 0 0 0 0.25 0"/>
<feBlend mode="normal" in2="BackgroundImageFix" result="effect1_dropShadow_75_8422"/>
<feBlend mode="normal" in="SourceGraphic" in2="effect1_dropShadow_75_8422" result="shape"/>
</filter>
</defs>
</svg>
